<?xml version="1.0" encoding="UTF-8" standalone="no"?>
<!-- Created with Inkscape (http://www.inkscape.org/) -->

<svg
   xmlns:dc="http://purl.org/dc/elements/1.1/"
   xmlns:cc="http://creativecommons.org/ns#"
   xmlns:rdf="http://www.w3.org/1999/02/22-rdf-syntax-ns#"
   xmlns:svg="http://www.w3.org/2000/svg"
   xmlns="http://www.w3.org/2000/svg"
   xmlns:sodipodi="http://sodipodi.sourceforge.net/DTD/sodipodi-0.dtd"
   xmlns:inkscape="http://www.inkscape.org/namespaces/inkscape"
   width="100.21875"
   height="100.1875"
   id="svg3991"
   version="1.1"
   inkscape:version="0.48.4 r9939"
   sodipodi:docname="logo-web.svg"
   inkscape:export-filename="/home/gliss/code/ilovemtl/public/img/logo-web.png"
   inkscape:export-xdpi="90"
   inkscape:export-ydpi="90">
  <defs
     id="defs3993" />
  <sodipodi:namedview
     id="base"
     pagecolor="#ffffff"
     bordercolor="#666666"
     borderopacity="1.0"
     inkscape:pageopacity="0.0"
     inkscape:pageshadow="2"
     inkscape:zoom="2.8"
     inkscape:cx="83.974806"
     inkscape:cy="40.579095"
     inkscape:document-units="px"
     inkscape:current-layer="layer1"
     showgrid="false"
     fit-margin-top="0"
     fit-margin-left="0"
     fit-margin-right="0"
     fit-margin-bottom="0"
     inkscape:window-width="1366"
     inkscape:window-height="723"
     inkscape:window-x="0"
     inkscape:window-y="0"
     inkscape:window-maximized="1" />
  <metadata
     id="metadata3996">
    <rdf:RDF>
      <cc:Work
         rdf:about="">
        <dc:format>image/svg+xml</dc:format>
        <dc:type
           rdf:resource="http://purl.org/dc/dcmitype/StillImage" />
        <dc:title></dc:title>
      </cc:Work>
    </rdf:RDF>
  </metadata>
  <g
     inkscape:label="Layer 1"
     inkscape:groupmode="layer"
     id="layer1"
     transform="translate(-324.89062,-482.26843)">
    <path
       style="fill:#ee2c30;fill-opacity:1;fill-rule:nonzero;stroke:none"
       d="m 361.20312,482.26843 c -9.21375,0 -16.4375,7.34188 -16.4375,16.6875 0,0.8975 0.1825,2.15488 0.53125,3.71875 -0.84625,-0.17962 -2.43875,-0.5 -3.75,-0.5 -9.34,0 -16.65625,7.19775 -16.65625,16.375 0,5.40138 3.03125,10.67725 7.875,13.90625 -4.89,3.2695 -7.84375,8.35987 -7.84375,13.71875 0,9.06737 7.49625,16.4375 16.6875,16.4375 1.12375,0 2.475,-0.24125 3.65625,-0.5 -0.3275,1.50137 -0.5,2.74312 -0.5,3.65625 0,9.34566 7.22375,16.6875 16.4375,16.6875 5.46125,0 10.5575,-2.8545 13.75,-7.625 3.07375,4.56543 8.58125,7.625 13.875,7.625 9.18125,0 16.375,-7.34184 16.375,-16.6875 0,-1.21588 -0.25625,-2.66025 -0.46875,-3.65625 1.565,0.33437 2.825,0.5 3.71875,0.5 9.19,0 16.65625,-7.37013 16.65625,-16.4375 0,-5.40775 -2.9225,-10.64888 -7.625,-13.8125 4.7025,-3.16013 7.625,-8.391 7.625,-13.8125 0,-9.0195 -7.51875,-16.375 -16.75,-16.375 -1.155,0 -2.53375,0.293 -3.625,0.53125 0.18,-0.852 0.46875,-2.457 0.46875,-3.75 0,-9.34562 -7.19375,-16.6875 -16.375,-16.6875 -5.3475,0 -10.5475,2.98137 -13.75,7.78125 -3.2225,-4.79738 -8.49625,-7.78125 -13.875,-7.78125 z m -0.0625,5.34375 c 2.97625,-0.005 5.7625,1.14562 7.875,3.25 1.39323,1.38793 5.56071,5.76465 6.0625,7.625 0.50058,-1.86785 4.57386,-6.28732 5.96875,-7.6875 1.44625,-1.45263 3.9625,-3.18112 7.78125,-3.1875 2.94625,-0.001 5.85,1.19138 7.9375,3.28125 2.06375,2.0595 3.21625,4.80813 3.21875,7.75 l 0,0.0312 c 0,3.91113 -1.84125,6.519 -3.375,8.03125 -0.002,0.003 -18.97748,23.68301 -20.75,25.8125 -0.25621,-0.0299 -0.51702,-0.0625 -0.78125,-0.0625 -0.26423,0 -0.52504,0.0326 -0.78125,0.0625 -1.7433,-2.09065 -20.84375,-25.78125 -20.84375,-25.78125 -0.8,-0.75437 -3.4,-3.5415 -3.40625,-7.96875 l 0,-0.0312 c 0,-6.85162 5.745,-11.11175 11.09375,-11.125 z m 47.40625,19.65625 c 6.87,-0.0111 11.14375,5.771 11.15625,11.125 0.005,2.97263 -1.14625,5.76075 -3.25,7.875 -2.0975,2.1045 -4.9025,3.30862 -7.90625,3.3125 l -17.21875,0 -4.4375,5.5 21.75,0 c 5.355,-0.007 11.14625,4.22113 11.15625,11.09375 0.007,6.13038 -4.96375,11.11525 -11.0625,11.125 -3.92,0.005 -6.5225,-1.813 -8.03125,-3.34375 -0.005,-0.002 -0.9975,-0.9615 -1.3125,-1.28125 0.21,-0.58113 0.4375,-1.33738 0.4375,-2.375 0,-3.69863 -3.065,-6.73775 -6.8125,-6.75 -1.80125,-0.007 -3.41125,0.67087 -4.65625,1.90625 -1.275,1.2695 -2.02625,3.064 -2.03125,4.84375 0,1.72125 0.79875,3.608 2.0625,4.875 1.23625,1.23788 2.8425,1.8775 4.6875,1.875 1.01125,-0.002 1.87,-0.28125 2.3125,-0.4375 0.2325,0.22712 1.3125,1.28125 1.3125,1.28125 0.80375,0.75688 3.4275,3.57375 3.4375,8 0,6.85796 -5.7725,11.14648 -11.125,11.15625 -2.96625,0.007 -5.7925,-1.17431 -7.90625,-3.28125 -2.105,-2.09473 -3.34125,-4.90575 -3.34375,-7.90625 l 0,-16.71783 c -0.81708,0.34966 -1.74251,0.53125 -2.6875,0.53125 -0.9947,0 -1.93046,-0.20852 -2.78125,-0.59375 l 0,16.84283 c 0.005,2.9395 -1.23125,5.85205 -3.34375,7.96875 -1.445,1.45264 -3.9575,3.18505 -7.78125,3.1875 -6.1325,0.007 -11.14625,-4.9375 -11.15625,-11.03125 l 0,-0.0312 c 0,-3.90138 1.815,-6.544 3.34375,-8.0625 0.002,0 1,-0.96387 1.3125,-1.28125 0.585,0.21488 1.3375,0.435 2.375,0.4375 3.70625,0 6.70375,-3.065 6.71875,-6.8125 0.002,-1.80175 -0.6375,-3.40863 -1.875,-4.65625 -1.2675,-1.27438 -3.09625,-2.02638 -4.875,-2.03125 -1.71875,-0.002 -3.5775,0.76412 -4.84375,2.03125 -1.23375,1.23775 -1.90625,2.88038 -1.90625,4.71875 0,1.00588 0.31,1.873 0.46875,2.3125 -0.23125,0.23437 -1.3125,1.3125 -1.3125,1.3125 -0.74875,0.80087 -3.55,3.43262 -7.96875,3.4375 -2.96375,0.007 -5.74,-1.15337 -7.8125,-3.21875 -2.115,-2.10937 -3.34,-4.98387 -3.34375,-7.90625 -0.008,-2.97362 1.14375,-5.76312 3.25,-7.875 2.1,-2.10687 4.90625,-3.33875 7.90625,-3.34375 l 21.71875,0 -4.59375,-5.5 -17.0625,0 c -2.93625,0.007 -5.82125,-1.20313 -7.9375,-3.3125 -1.4525,-1.44688 -3.1825,-3.958 -3.1875,-7.78125 -0.005,-2.94425 1.18875,-5.84425 3.28125,-7.9375 2.06125,-2.062 4.80875,-3.21537 7.75,-3.21875 3.91875,-0.004 6.545,1.84412 8.0625,3.375 0,0 16.07476,19.94303 20.03125,24.78125 -0.69587,1.05383 -1.125,2.2989 -1.125,3.65625 0,3.68706 3.00044,6.6875 6.6875,6.6875 3.68706,0 6.65625,-3.00044 6.65625,-6.6875 0,-1.35735 -0.39788,-2.60242 -1.09375,-3.65625 3.08002,-3.78165 19.9375,-24.81255 19.9375,-24.81255 0.76,-0.80175 3.55,-3.39888 7.96875,-3.40625 z"
       id="path3075-0"
       inkscape:connector-curvature="0"
       sodipodi:nodetypes="sscsscsscsscsscsscsscsscscccccccsccscccsccccccccccccsccccccccccccscccccscccccccsccccccccccccscccsssccc" />
  </g>
</svg>
