<?xml version="1.0" encoding="UTF-8" standalone="no"?>
<!-- Created with Inkscape (http://www.inkscape.org/) -->

<svg
   xmlns:dc="http://purl.org/dc/elements/1.1/"
   xmlns:cc="http://creativecommons.org/ns#"
   xmlns:rdf="http://www.w3.org/1999/02/22-rdf-syntax-ns#"
   xmlns:svg="http://www.w3.org/2000/svg"
   xmlns="http://www.w3.org/2000/svg"
   xmlns:sodipodi="http://sodipodi.sourceforge.net/DTD/sodipodi-0.dtd"
   xmlns:inkscape="http://www.inkscape.org/namespaces/inkscape"
   width="744.09448819"
   height="1052.3622047"
   id="svg3003"
   version="1.1"
   inkscape:version="0.48.4 r9939"
   sodipodi:docname="logo.svg">
  <defs
     id="defs3005" />
  <sodipodi:namedview
     id="base"
     pagecolor="#ffffff"
     bordercolor="#666666"
     borderopacity="1.0"
     inkscape:pageopacity="0.0"
     inkscape:pageshadow="2"
     inkscape:zoom="2.8284271"
     inkscape:cx="266.90924"
     inkscape:cy="607.99122"
     inkscape:document-units="px"
     inkscape:current-layer="layer1"
     showgrid="false"
     showguides="true"
     inkscape:guide-bbox="true"
     inkscape:window-width="1366"
     inkscape:window-height="723"
     inkscape:window-x="0"
     inkscape:window-y="0"
     inkscape:window-maximized="1">
    <sodipodi:guide
       orientation="1,0"
       position="408.85156,747.00391"
       id="guide3039" />
    <sodipodi:guide
       orientation="1,0"
       position="369.1875,639.90625"
       id="guide3866" />
    <sodipodi:guide
       orientation="0,1"
       position="325.59766,594.58203"
       id="guide3868" />
    <sodipodi:guide
       orientation="0,1"
       position="354.08372,619.42554"
       id="guide3894" />
    <sodipodi:guide
       orientation="0,1"
       position="363.01094,605.99051"
       id="guide3896" />
    <sodipodi:guide
       orientation="0.77208223,0.63552264"
       position="352.18337,598.07975"
       id="guide3907" />
    <sodipodi:guide
       orientation="-0.77852637,0.6276119"
       position="380.15828,590.9203"
       id="guide3909" />
    <sodipodi:guide
       orientation="0,1"
       position="374.5625,576.78125"
       id="guide3978" />
  </sodipodi:namedview>
  <metadata
     id="metadata3008">
    <rdf:RDF>
      <cc:Work
         rdf:about="">
        <dc:format>image/svg+xml</dc:format>
        <dc:type
           rdf:resource="http://purl.org/dc/dcmitype/StillImage" />
      </cc:Work>
    </rdf:RDF>
  </metadata>
  <g
     inkscape:label="Layer 1"
     inkscape:groupmode="layer"
     id="layer1">
    <path
       inkscape:connector-curvature="0"
       d="m 226.35167,309.01338 c -3.2225,-4.79738 -8.49625,-7.77738 -13.875,-7.77738 -9.21375,0 -16.4375,7.31938 -16.4375,16.665 0,0.8975 0.19,2.15338 0.53875,3.71725 -0.84625,-0.17962 -2.43125,-0.4785 -3.7425,-0.4785 -9.34,0 -16.665,7.1875 -16.665,16.36475 0,5.40138 3.0125,10.67975 7.85625,13.90875 -4.89,3.2695 -7.81625,8.36475 -7.81625,13.72363 0,9.06737 7.48,16.44037 16.67125,16.44037 1.12375,0 2.48875,-0.26362 3.67,-0.52237 -0.3275,1.50137 -0.5125,2.76362 -0.5125,3.67675 0,9.34566 7.22375,16.665 16.4375,16.665 5.46125,0 10.5575,-2.84913 13.75,-7.61963 3.07375,4.56543 8.59625,7.61963 13.89,7.61963 9.18125,0 16.36375,-7.31934 16.36375,-16.665 0,-1.21588 -0.26375,-2.68075 -0.47625,-3.67675 1.565,0.33437 2.8175,0.52237 3.71125,0.52237 9.19,0 16.6625,-7.373 16.6625,-16.44037 0,-5.40775 -2.91,-10.66163 -7.6125,-13.82525 4.7025,-3.16013 7.6125,-8.39688 7.6125,-13.81838 0,-9.0195 -7.50875,-16.36225 -16.74,-16.36225 -1.155,0 -2.55125,0.293 -3.6425,0.53125 0.18,-0.852 0.485,-2.46825 0.485,-3.76125 0,-9.34562 -7.1825,-16.665 -16.36375,-16.665 -5.3475,0 -10.5625,2.9775 -13.765,7.77738 z m -21.62875,16.69187 -0.005,-0.004 c -0.8,-0.75437 -3.39875,-3.5595 -3.405,-7.98675 0,-0.01 0,-0.0185 0,-0.0259 0,-6.85162 5.75875,-11.1035 11.1075,-11.11675 2.97625,-0.005 5.77125,1.15 7.88375,3.25438 2.10625,2.09824 3.25625,4.90724 3.26125,7.91024 l 0,25.82863 c -0.002,3.19337 -2.83625,4.96237 -4.83625,4.96237 l -25.9425,0 c -2.93625,0.007 -5.83,-1.1865 -7.94625,-3.29587 -1.4525,-1.44688 -3.18625,-3.97713 -3.19125,-7.80038 -0.005,-2.94425 1.18875,-5.834 3.28125,-7.92725 2.06125,-2.062 4.81,-3.20212 7.75125,-3.2055 3.91875,-0.004 6.55125,1.81975 8.06875,3.35063 0,0 0.9825,0.978 1.30625,1.29287 -0.22125,0.57863 -0.43875,1.32675 -0.43875,2.36913 0,3.69875 3.04875,6.72125 6.79125,6.73837 1.8075,0.007 3.41625,-0.648 4.67125,-1.89312 1.27375,-1.2695 2.03625,-3.08588 2.03625,-4.86325 0.002,-1.72513 -0.77875,-3.5815 -2.04375,-4.84863 -1.2425,-1.23787 -2.87125,-1.88962 -4.7175,-1.88875 -1.01,0.002 -1.8525,0.293 -2.30375,0.44688 -0.2275,-0.22463 -1.32875,-1.29738 -1.32875,-1.29738 z m 24.32625,-7.99712 c -0.007,-2.9345 1.15,-5.831 3.25875,-7.94775 1.44625,-1.45263 3.985,-3.186 7.80375,-3.19238 2.94625,-10e-4 5.84125,1.19388 7.92875,3.28375 2.06375,2.0595 3.20125,4.81588 3.20375,7.75775 0,0.006 0,0.0107 0,0.0171 0,3.91113 -1.81375,6.53313 -3.3475,8.04538 -0.002,0.004 -0.97875,0.98537 -1.29625,1.30375 -0.57625,-0.21238 -1.3275,-0.43213 -2.36625,-0.43463 -3.69375,-0.001 -6.71375,3.04938 -6.73,6.79588 -0.005,1.80275 0.64125,3.41312 1.88625,4.65825 1.2675,1.27437 3.08125,2.0395 4.86125,2.0435 0.002,0 0.008,0 0.01,0 1.72875,0 3.57375,-0.78763 4.83875,-2.05088 1.2375,-1.23037 1.885,-2.85537 1.885,-4.69475 0,-0.004 0,-0.01 0,-0.0138 0,-1.00437 -0.28625,-1.85787 -0.4375,-2.30075 0.2225,-0.2295 1.29875,-1.33687 1.29875,-1.33687 0.76,-0.80175 3.5625,-3.40188 7.98125,-3.40925 6.87,-0.0111 11.1325,5.75787 11.145,11.11187 0.005,2.97263 -1.1525,5.77388 -3.25625,7.88813 -2.0975,2.1045 -4.9025,3.29112 -7.90625,3.295 l -25.825,0 c -3.1925,-0.003 -4.93375,-2.88238 -4.93625,-4.88526 l 0,-25.93412 z m -44.1425,55.46587 c -2.115,-2.10937 -3.32875,-4.99512 -3.3325,-7.9175 l 0,0 c -0.008,-2.97362 1.1475,-5.77637 3.25375,-7.88825 2.1,-2.10687 4.9,-3.31287 7.9,-3.31787 l 25.8375,0 c 3.19375,0.005 4.995,2.90287 5,4.90237 l 0,25.93263 c 0.005,2.9395 -1.225,5.83742 -3.3375,7.95412 -1.445,1.45264 -3.97375,3.18603 -7.7975,3.18848 -6.1325,0.007 -11.125,-4.94385 -11.135,-11.0376 0,-0.007 0,-0.0122 0,-0.0195 0,-3.90138 1.82375,-6.52838 3.3525,-8.04688 0.002,0 0.98125,-0.98637 1.29375,-1.30375 0.585,0.21488 1.33,0.43213 2.3675,0.43463 3.70625,0 6.71875,-3.0445 6.73375,-6.792 0.002,-1.80175 -0.6425,-3.41063 -1.88,-4.65825 -1.2675,-1.27438 -3.08875,-2.03613 -4.8675,-2.041 -1.71875,-0.002 -3.5825,0.77637 -4.84875,2.0435 -1.23375,1.23775 -1.8925,2.86125 -1.8925,4.69962 0,0.002 0,0.007 0,0.0122 0,1.00588 0.29,1.85788 0.44875,2.29738 -0.23125,0.23437 -1.30625,1.34025 -1.30625,1.34025 -0.74875,0.80087 -3.56625,3.40587 -7.985,3.41075 -2.96375,0.007 -5.7325,-1.128 -7.805,-3.19338 z m 47.49,19.55808 c -2.105,-2.09473 -3.345,-4.90233 -3.3475,-7.90283 l 0,-25.8325 c 0.002,-3.19337 2.9425,-4.94387 4.94375,-4.94637 l 25.9275,0 c 5.355,-0.007 11.1375,4.209 11.1475,11.08162 0.007,6.13038 -4.94625,11.1255 -11.045,11.13525 -3.92,0.005 -6.55,-1.81887 -8.05875,-3.34962 -0.005,-0.002 -0.98875,-0.9815 -1.30375,-1.30125 0.21,-0.58113 0.4275,-1.32813 0.4275,-2.36575 l 0,-0.002 c 0,-3.69863 -3.045,-6.71625 -6.7925,-6.7285 -1.80125,-0.007 -3.4025,0.64212 -4.6475,1.8775 -1.275,1.2695 -2.04125,3.09325 -2.04625,4.873 0,1.72125 0.78625,3.58162 2.05,4.84862 1.23625,1.23788 2.8625,1.88975 4.7075,1.88725 1.01125,-0.002 1.855,-0.28812 2.2975,-0.44437 0.2325,0.22712 1.3325,1.29887 1.3325,1.29887 0.80375,0.75688 3.40875,3.562 3.41875,7.98825 0,0.005 0,0.007 0,0.0146 0,6.85796 -5.77125,11.11821 -11.12375,11.12798 -2.96625,0.007 -5.77375,-1.15234 -7.8875,-3.25928"
       style="fill:#ee2c30;fill-opacity:1;fill-rule:nonzero;stroke:none"
       id="path3075" />
    <path
       inkscape:connector-curvature="0"
       d="m 409.54179,297.91638 c -3.2225,-4.79737 -8.49625,-7.77737 -13.875,-7.77737 -9.21375,0 -16.4375,7.31937 -16.4375,16.665 0,0.8975 0.19,2.15337 0.53875,3.71725 -0.84625,-0.17963 -2.43125,-0.4785 -3.7425,-0.4785 -9.34,0 -16.665,7.1875 -16.665,16.36475 0,5.40137 3.0125,10.67975 7.85625,13.90875 -4.89,3.2695 -7.81625,8.36475 -7.81625,13.72362 0,9.06738 7.48,16.44038 16.67125,16.44038 1.12375,0 2.48875,-0.26363 3.67,-0.52238 -0.3275,1.50138 -0.5125,2.76363 -0.5125,3.67675 0,9.34567 7.22375,16.66501 16.4375,16.66501 5.46125,0 10.5575,-2.84913 13.75,-7.61963 3.07375,4.56542 8.59625,7.61963 13.89,7.61963 9.18125,0 16.36375,-7.31934 16.36375,-16.66501 0,-1.21587 -0.26375,-2.68075 -0.47625,-3.67675 1.565,0.33438 2.8175,0.52238 3.71125,0.52238 9.19,0 16.6625,-7.373 16.6625,-16.44038 0,-5.40775 -2.91,-10.66162 -7.6125,-13.82525 4.7025,-3.16012 7.6125,-8.39687 7.6125,-13.81837 0,-9.0195 -7.50875,-16.36225 -16.74,-16.36225 -1.155,0 -2.55125,0.293 -3.6425,0.53125 0.18,-0.852 0.485,-2.46825 0.485,-3.76125 0,-9.34563 -7.1825,-16.665 -16.36375,-16.665 -5.3475,0 -10.5625,2.9775 -13.765,7.77737 z m 0.40268,37.90445 0.0903,0.33194 c -0.002,3.19338 -6.11542,1.27759 -8.11542,1.27759 l -25.9425,0 c -2.93625,0.007 -5.83,-1.1865 -7.94625,-3.29588 -1.4525,-1.44687 -3.18625,-3.97712 -3.19125,-7.80037 -0.005,-2.94425 1.18875,-5.834 3.28125,-7.92725 2.06125,-2.062 4.81,-3.20213 7.75125,-3.2055 3.91875,-0.004 24.55125,27.81975 26.06875,29.35062 0,0 0.9825,0.978 1.30625,1.29288 -0.22125,0.57862 -0.43875,1.32675 -0.43875,2.36912 0,3.69875 3.04875,6.72125 6.79125,6.73838 1.8075,0.007 3.41625,-0.648 4.67125,-1.89313 1.27375,-1.2695 2.03625,-3.08587 2.03625,-4.86325 0.002,-1.72512 -0.77875,-3.5815 -2.04375,-4.84862 -1.2425,-1.23788 -2.87125,-1.88963 -4.7175,-1.88875 -1.01,0.002 -1.8525,0.293 -2.30375,0.44687 -0.2275,-0.22462 -1.32875,-1.29737 -1.32875,-1.29737 l -4e-5,1.5e-4 -0.005,-0.004 c -0.8,-0.75438 -21.39875,-29.5595 -21.405,-33.98675 0,-0.01 0,-0.0185 0,-0.0259 0,-6.85163 5.75875,-11.1035 11.1075,-11.11675 2.97625,-0.005 5.77125,1.15 7.88375,3.25437 2.08211,2.0742 5.85328,3.97619 5.94488,6.91775 0.001,0.0341 0.14053,0.12697 0.14063,0.16096 m 0.1289,-0.18283 c 0.60306,-3.28431 3.80251,-5.01749 5.78934,-6.96173 1.44625,-1.45262 3.985,-3.186 7.80375,-3.19237 2.94625,-10e-4 5.84125,1.19387 7.92875,3.28375 2.06375,2.0595 3.20125,4.81587 3.20375,7.75775 0,0.006 0,0.0107 0,0.0171 0,3.91112 -17.81375,30.53312 -19.3475,32.04537 -0.002,0.004 -0.97875,0.98538 -1.29625,1.30375 -0.57625,-0.21237 -1.3275,-0.43212 -2.36625,-0.43462 -3.69375,-0.001 -6.71375,3.04937 -6.73,6.79587 -0.005,1.80275 0.64125,3.41313 1.88625,4.65825 1.2675,1.27438 3.08125,2.0395 4.86125,2.0435 0.002,0 0.007,0 0.01,0 1.72875,0 3.57375,-0.78762 4.83875,-2.05087 1.2375,-1.23038 1.885,-2.85538 1.885,-4.69475 0,-0.004 0,-0.01 0,-0.0138 0,-1.00438 -0.28625,-1.85788 -0.4375,-2.30075 0.2225,-0.2295 1.29875,-1.33688 1.29875,-1.33688 0.76,-0.80175 19.5625,-27.40187 23.98125,-27.40925 6.87,-0.0111 11.1325,5.75788 11.145,11.11188 0.005,2.97262 -1.1525,5.77387 -3.25625,7.88812 -2.0975,2.1045 -4.9025,3.29113 -7.90625,3.295 l -25.825,0 c -3.1925,-0.003 -6.3976,0.72236 -6.4001,-1.28051 2.8101,-9.31516 2.88294,-20.00832 -1.11792,-30.37362 -0.0121,-0.0313 0.0497,-0.11773 0.0512,-0.15119 z m -41.61191,56.4519 c -2.115,-2.10938 -3.32875,-4.99513 -3.3325,-7.9175 l 0,0 c -0.007,-2.97363 1.1475,-5.77638 3.25375,-7.88825 2.1,-2.10688 4.9,-3.31288 7.9,-3.31788 l 25.8375,0 c 3.19375,0.005 4.995,2.90288 5,4.90238 l 0,25.93262 c 0.005,2.9395 -1.225,5.83743 -3.3375,7.95413 -1.445,1.45264 -3.97375,3.18602 -7.7975,3.18847 -6.1325,0.007 -11.125,-4.94385 -11.135,-11.0376 0,-0.007 0,-0.0122 0,-0.0195 0,-3.90137 1.82375,-6.52837 3.3525,-8.04687 0.002,0 0.98125,-0.98638 1.29375,-1.30375 0.585,0.21487 1.33,0.43212 2.3675,0.43462 3.70625,0 6.71875,-3.0445 6.73375,-6.792 0.002,-1.80175 -0.6425,-3.41062 -1.88,-4.65825 -1.2675,-1.27437 -3.08875,-2.03612 -4.8675,-2.041 -1.71875,-0.002 -3.5825,0.77638 -4.84875,2.0435 -1.23375,1.23775 -1.8925,2.86125 -1.8925,4.69963 0,0.002 0,0.007 0,0.0122 0,1.00587 0.29,1.85787 0.44875,2.29737 -0.23125,0.23438 -1.30625,1.34025 -1.30625,1.34025 -0.74875,0.80088 -3.56625,3.40588 -7.985,3.41075 -2.96375,0.007 -5.7325,-1.128 -7.805,-3.19337 z m 47.49,19.55807 c -2.105,-2.09472 -3.345,-4.90232 -3.3475,-7.90282 l 0,-25.8325 c 0.002,-3.19338 2.9425,-4.94388 4.94375,-4.94638 l 25.9275,0 c 5.355,-0.007 11.1375,4.209 11.1475,11.08163 0.007,6.13037 -4.94625,11.1255 -11.045,11.13525 -3.92,0.005 -6.55,-1.81888 -8.05875,-3.34963 -0.005,-0.002 -0.98875,-0.9815 -1.30375,-1.30125 0.21,-0.58112 0.4275,-1.32812 0.4275,-2.36575 l 0,-0.002 c 0,-3.69862 -3.045,-6.71625 -6.7925,-6.7285 -1.80125,-0.007 -3.4025,0.64213 -4.6475,1.8775 -1.275,1.2695 -2.04125,3.09325 -2.04625,4.873 0,1.72125 0.78625,3.58163 2.05,4.84863 1.23625,1.23787 2.8625,1.88975 4.7075,1.88725 1.01125,-0.002 1.855,-0.28813 2.2975,-0.44438 0.2325,0.22713 1.3325,1.29888 1.3325,1.29888 0.80375,0.75687 3.40875,3.562 3.41875,7.98825 0,0.005 0,0.007 0,0.0146 0,6.85796 -5.77125,11.11821 -11.12375,11.12797 -2.96625,0.007 -5.77375,-1.15233 -7.8875,-3.25927"
       style="fill:#ee2c30;fill-opacity:1;fill-rule:nonzero;stroke:none"
       id="path3075-4"
       sodipodi:nodetypes="csscsscsscsscsscsscsscsscccscccscccsccccccccccsccsccccccsccccccscssccccccccsccccccccccccscccccccssccccccccccccccssccccccccscc" />
    <path
       style="fill:#ee2c30;fill-opacity:1;fill-rule:nonzero;stroke:none"
       d="m 355.3125,407.59375 c -9.21375,0 -16.4375,7.34188 -16.4375,16.6875 0,0.8975 0.1825,2.15488 0.53125,3.71875 -0.84625,-0.17962 -2.43875,-0.5 -3.75,-0.5 -9.34,0 -16.65625,7.19775 -16.65625,16.375 0,5.40138 3.03125,10.67725 7.875,13.90625 -4.89,3.2695 -7.84375,8.35987 -7.84375,13.71875 0,9.06737 7.49625,16.4375 16.6875,16.4375 1.12375,0 2.475,-0.24125 3.65625,-0.5 -0.3275,1.50137 -0.5,2.74312 -0.5,3.65625 0,9.34566 7.22375,16.6875 16.4375,16.6875 5.46125,0 10.5575,-2.8545 13.75,-7.625 3.07375,4.56543 8.58125,7.625 13.875,7.625 9.18125,0 16.375,-7.34184 16.375,-16.6875 0,-1.21588 -0.25625,-2.66025 -0.46875,-3.65625 1.565,0.33437 2.825,0.5 3.71875,0.5 9.19,0 16.65625,-7.37013 16.65625,-16.4375 0,-5.40775 -2.9225,-10.64888 -7.625,-13.8125 4.7025,-3.16013 7.625,-8.391 7.625,-13.8125 0,-9.0195 -7.51875,-16.375 -16.75,-16.375 -1.155,0 -2.53375,0.293 -3.625,0.53125 0.18,-0.852 0.46875,-2.457 0.46875,-3.75 0,-9.34562 -7.19375,-16.6875 -16.375,-16.6875 -5.3475,0 -10.5475,2.98137 -13.75,7.78125 -3.2225,-4.79738 -8.49625,-7.78125 -13.875,-7.78125 z m -0.0625,5.34375 c 2.97625,-0.005 5.7625,1.14562 7.875,3.25 1.39323,1.38793 5.56071,5.76465 6.0625,7.625 0.50058,-1.86785 4.57386,-6.28732 5.96875,-7.6875 1.44625,-1.45263 3.9625,-3.18112 7.78125,-3.1875 2.94625,-10e-4 5.85,1.19138 7.9375,3.28125 2.06375,2.0595 3.21625,4.80813 3.21875,7.75 l 0,0.0312 c 0,3.91113 -1.84125,6.519 -3.375,8.03125 -0.002,0.003 -18.97748,23.68301 -20.75,25.8125 -0.25621,-0.0299 -0.51702,-0.0625 -0.78125,-0.0625 -0.26423,0 -0.52504,0.0326 -0.78125,0.0625 -1.7433,-2.09065 -20.84375,-25.78125 -20.84375,-25.78125 -0.8,-0.75437 -3.4,-3.5415 -3.40625,-7.96875 l 0,-0.0312 c 0,-6.85162 5.745,-11.11175 11.09375,-11.125 z m 47.40625,19.65625 c 6.87,-0.0111 11.14375,5.771 11.15625,11.125 0.005,2.97263 -1.14625,5.76075 -3.25,7.875 -2.0975,2.1045 -4.9025,3.30862 -7.90625,3.3125 l -17.21875,0 -4.4375,5.5 21.75,0 c 5.355,-0.007 11.14625,4.22113 11.15625,11.09375 0.007,6.13038 -4.96375,11.11525 -11.0625,11.125 -3.92,0.005 -6.5225,-1.813 -8.03125,-3.34375 -0.005,-0.002 -0.9975,-0.9615 -1.3125,-1.28125 0.21,-0.58113 0.4375,-1.33738 0.4375,-2.375 0,-3.69863 -3.065,-6.73775 -6.8125,-6.75 -1.80125,-0.007 -3.41125,0.67087 -4.65625,1.90625 -1.275,1.2695 -2.02625,3.064 -2.03125,4.84375 0,1.72125 0.79875,3.608 2.0625,4.875 1.23625,1.23788 2.8425,1.8775 4.6875,1.875 1.01125,-0.002 1.87,-0.28125 2.3125,-0.4375 0.2325,0.22712 1.3125,1.28125 1.3125,1.28125 0.80375,0.75688 3.4275,3.57375 3.4375,8 0,6.85796 -5.7725,11.14648 -11.125,11.15625 -2.96625,0.007 -5.7925,-1.17431 -7.90625,-3.28125 -2.105,-2.09473 -3.34125,-4.90575 -3.34375,-7.90625 l 0,-16.71783 c -0.81708,0.34966 -1.74251,0.53125 -2.6875,0.53125 -0.9947,0 -1.93046,-0.20852 -2.78125,-0.59375 l 0,16.84283 c 0.005,2.9395 -1.23125,5.85205 -3.34375,7.96875 -1.445,1.45264 -3.9575,3.18505 -7.78125,3.1875 -6.1325,0.007 -11.14625,-4.9375 -11.15625,-11.03125 l 0,-0.0312 c 0,-3.90138 1.815,-6.544 3.34375,-8.0625 0.002,0 1,-0.96387 1.3125,-1.28125 0.585,0.21488 1.3375,0.435 2.375,0.4375 3.70625,0 6.70375,-3.065 6.71875,-6.8125 0.002,-1.80175 -0.6375,-3.40863 -1.875,-4.65625 -1.2675,-1.27438 -3.09625,-2.02638 -4.875,-2.03125 -1.71875,-0.002 -3.5775,0.76412 -4.84375,2.03125 -1.23375,1.23775 -1.90625,2.88038 -1.90625,4.71875 0,1.00588 0.31,1.873 0.46875,2.3125 -0.23125,0.23437 -1.3125,1.3125 -1.3125,1.3125 -0.74875,0.80087 -3.55,3.43262 -7.96875,3.4375 -2.96375,0.007 -5.74,-1.15337 -7.8125,-3.21875 -2.115,-2.10937 -3.34,-4.98387 -3.34375,-7.90625 -0.008,-2.97362 1.14375,-5.76312 3.25,-7.875 2.1,-2.10687 4.90625,-3.33875 7.90625,-3.34375 l 21.71875,0 -4.59375,-5.5 -17.0625,0 c -2.93625,0.007 -5.82125,-1.20313 -7.9375,-3.3125 -1.4525,-1.44688 -3.1825,-3.958 -3.1875,-7.78125 -0.005,-2.94425 1.18875,-5.84425 3.28125,-7.9375 2.06125,-2.062 4.80875,-3.21537 7.75,-3.21875 3.91875,-0.004 6.545,1.84412 8.0625,3.375 0,0 16.07476,19.94303 20.03125,24.78125 -0.69587,1.05383 -1.125,2.2989 -1.125,3.65625 0,3.68706 3.00044,6.6875 6.6875,6.6875 3.68706,0 6.65625,-3.00044 6.65625,-6.6875 0,-1.35735 -0.39788,-2.60242 -1.09375,-3.65625 C 377.83002,457.0309 394.6875,436 394.6875,436 c 0.76,-0.80175 3.55,-3.39888 7.96875,-3.40625 z"
       id="path3075-0"
       inkscape:connector-curvature="0"
       sodipodi:nodetypes="sscsscsscsscsscsscsscsscscccccccsccscccsccccccccccccsccccccccccccscccccscccccccsccccccccccccscccsssccc" />
    <path
       style="fill:#ee2c30;fill-opacity:1;fill-rule:nonzero;stroke:none"
       d="m 102.20312,508.26843 c -9.213745,0 -16.437495,7.34188 -16.437495,16.6875 0,0.8975 0.1825,2.15488 0.53125,3.71875 -0.84625,-0.17962 -2.43875,-0.5 -3.75,-0.5 -9.34,0 -16.65625,7.19775 -16.65625,16.375 0,5.40138 3.03125,10.67725 7.875,13.90625 -4.89,3.2695 -7.84375,8.35987 -7.84375,13.71875 0,9.06737 7.49625,16.4375 16.6875,16.4375 1.12375,0 2.475,-0.24125 3.65625,-0.5 -0.3275,1.50137 -0.5,2.74312 -0.5,3.65625 0,9.34566 7.22375,16.6875 16.437495,16.6875 5.46125,0 10.5575,-2.8545 13.75,-7.625 3.07375,4.56543 8.58125,7.625 13.875,7.625 9.18125,0 16.375,-7.34184 16.375,-16.6875 0,-1.21588 -0.25625,-2.66025 -0.46875,-3.65625 1.565,0.33437 2.825,0.5 3.71875,0.5 9.19,0 16.65625,-7.37013 16.65625,-16.4375 0,-5.40775 -2.9225,-10.64888 -7.625,-13.8125 4.7025,-3.16013 7.625,-8.391 7.625,-13.8125 0,-9.0195 -7.51875,-16.375 -16.75,-16.375 -1.155,0 -2.53375,0.293 -3.625,0.53125 0.18,-0.852 0.46875,-2.457 0.46875,-3.75 0,-9.34562 -7.19375,-16.6875 -16.375,-16.6875 -5.3475,0 -10.5475,2.98137 -13.75,7.78125 -3.2225,-4.79738 -8.49625,-7.78125 -13.875,-7.78125 z m -0.0625,5.34375 c 2.97625,-0.005 5.7625,1.14562 7.875,3.25 1.39323,1.38793 2.37321,3.1084 2.875,4.96875 l 6.28125,0 c 0.50058,-1.86785 1.48011,-3.63107 2.875,-5.03125 1.44625,-1.45263 3.9625,-3.18112 7.78125,-3.1875 2.94625,-10e-4 5.85,1.19138 7.9375,3.28125 2.06375,2.0595 3.21625,4.80813 3.21875,7.75 l 0,0.0312 c 0,3.91113 -1.84125,6.519 -3.375,8.03125 -0.002,0.003 -18.97748,23.68301 -20.75,25.8125 -0.25621,-0.0299 -0.51702,-0.0625 -0.78125,-0.0625 -0.26423,0 -0.52504,0.0326 -0.78125,0.0625 -1.7433,-2.09065 -20.843745,-25.78125 -20.843745,-25.78125 -0.8,-0.75437 -3.4,-3.5415 -3.40625,-7.96875 l 0,-0.0312 c 0,-6.85162 5.745,-11.11175 11.093745,-11.125 z m 47.40625,19.65625 c 6.87,-0.0111 11.14375,5.771 11.15625,11.125 0.005,2.97263 -1.14625,5.76075 -3.25,7.875 -2.0975,2.1045 -4.9025,3.30862 -7.90625,3.3125 l -17.22925,0 -4.43384,5.5 21.75684,0 c 5.355,-0.007 11.14625,4.22113 11.15625,11.09375 0.007,6.13038 -4.96375,11.11525 -11.0625,11.125 -3.92,0.005 -6.5225,-1.813 -8.03125,-3.34375 -0.005,-0.002 -0.9975,-0.9615 -1.3125,-1.28125 0.21,-0.58113 0.4375,-1.33738 0.4375,-2.375 0,-3.69863 -3.065,-6.73775 -6.8125,-6.75 -1.80125,-0.007 -3.41125,0.67087 -4.65625,1.90625 -1.275,1.2695 -2.02625,3.064 -2.03125,4.84375 0,1.72125 0.79875,3.608 2.0625,4.875 1.23625,1.23788 2.8425,1.8775 4.6875,1.875 1.01125,-0.002 1.87,-0.28125 2.3125,-0.4375 0.2325,0.22712 1.3125,1.28125 1.3125,1.28125 0.80375,0.75688 3.4275,3.57375 3.4375,8 0,6.85796 -5.7725,11.14648 -11.125,11.15625 -2.96625,0.007 -5.7925,-1.17431 -7.90625,-3.28125 -2.105,-2.09473 -3.34125,-4.90575 -3.34375,-7.90625 l 0,-0.0625 -5.46875,0 0,0.125 c 0.005,2.9395 -1.23125,5.85205 -3.34375,7.96875 -1.445,1.45264 -3.9575,3.18505 -7.78125,3.1875 -6.132495,0.007 -11.146245,-4.9375 -11.156245,-11.03125 l 0,-0.0312 c 0,-3.90138 1.815,-6.544 3.34375,-8.0625 0.002,0 1,-0.96387 1.3125,-1.28125 0.585,0.21488 1.3375,0.435 2.375,0.4375 3.706245,0 6.703745,-3.065 6.718745,-6.8125 0.002,-1.80175 -0.6375,-3.40863 -1.875,-4.65625 -1.2675,-1.27438 -3.096245,-2.02638 -4.874995,-2.03125 -1.71875,-0.002 -3.5775,0.76412 -4.84375,2.03125 -1.23375,1.23775 -1.90625,2.88038 -1.90625,4.71875 0,1.00588 0.31,1.873 0.46875,2.3125 -0.23125,0.23437 -1.3125,1.3125 -1.3125,1.3125 -0.74875,0.80087 -3.55,3.43262 -7.96875,3.4375 -2.96375,0.007 -5.74,-1.15337 -7.8125,-3.21875 -2.115,-2.10937 -3.34,-4.98387 -3.34375,-7.90625 -0.008,-2.97362 1.14375,-5.76312 3.25,-7.875 2.1,-2.10687 4.90625,-3.33875 7.90625,-3.34375 l 21.718745,0 -4.584355,-5.5 -17.07189,0 c -2.93625,0.007 -5.82125,-1.20313 -7.9375,-3.3125 -1.4525,-1.44688 -3.1825,-3.958 -3.1875,-7.78125 -0.005,-2.94425 1.18875,-5.84425 3.28125,-7.9375 2.06125,-2.062 4.80875,-3.21537 7.75,-3.21875 3.91875,-0.004 6.545,1.84412 8.0625,3.375 0,0 16.074755,19.94303 20.031245,24.78125 -0.69587,1.05383 -1.125,2.2989 -1.125,3.65625 0,3.68706 3.00044,6.6875 6.6875,6.6875 3.68706,0 6.65625,-3.00044 6.65625,-6.6875 0,-1.35735 -0.39788,-2.60242 -1.09375,-3.65625 3.08002,-3.7816 19.9375,-24.81255 19.9375,-24.81255 0.76,-0.80175 3.55,-3.39888 7.96875,-3.40625 z"
       id="path3075-0-6"
       inkscape:connector-curvature="0"
       sodipodi:nodetypes="sscsscsscsscsscsscsscsscsccccccccsccscccsccccccccccccscccccccccccccccccscccccccsccccccccccccscccsssccc" />
  </g>
</svg>
